<svg width="242" height="32" viewBox="0 0 242 32" fill="none" xmlns="http://www.w3.org/2000/svg">
<path d="M23.7297 22.3459C23.7758 20.6913 23.2782 19.0672 22.3129 17.7224C21.3477 16.3777 19.9681 15.3866 18.3857 14.9009C19.1235 14.2059 19.7048 13.3616 20.0907 12.4242C20.4766 11.4869 20.6583 10.478 20.6237 9.46494C20.6237 4.53194 16.6497 1.06493 11.0767 1.06493H0.388672V31.2069H13.8177C19.6187 31.2069 23.7297 27.5529 23.7297 22.3459ZM10.5747 6.35893C13.0867 6.35893 14.5027 7.63793 14.5027 9.78493C14.5027 11.9319 13.0867 13.2569 10.5747 13.2569H6.32667V6.35693L10.5747 6.35893ZM17.6547 22.1179C17.6547 24.4929 16.0547 25.9089 13.3607 25.9089H6.32667V18.3259H13.3607C16.0557 18.3259 17.6547 19.7879 17.6547 22.1179ZM28.7547 31.2079H49.5837V25.6349H34.9207V18.0069H45.2897V12.7539H34.9207V6.63293H49.0357V1.05993H28.7547V31.2079ZM84.8927 31.2079H91.5157L78.0867 0.511934H76.0307L62.5557 31.2119H69.1787L70.8687 27.2839H83.2027L84.8927 31.2079ZM81.0557 22.2079H73.0167L77.0367 12.0219L81.0557 22.2079ZM123.125 0.507935L110.381 16.8189L97.6367 0.511934H95.6267V31.2119H101.793V15.1289L109.375 24.6289H111.385L118.968 15.1289V31.2069H125.134V0.511934L123.125 0.507935ZM151.537 31.2079H158.16L144.731 0.507935H142.675L129.2 31.2079H135.823L137.513 27.2799H149.846L151.537 31.2079ZM147.7 22.2079H139.661L143.681 12.0219L147.7 22.2079ZM169.209 25.6349L184.328 2.70493V1.05993H161.677V6.63293H174.832L159.709 29.5629V31.2069H184.379V25.6349H169.209ZM189.125 31.2079H209.954V25.6349H195.296V18.0069H205.665V12.7539H195.296V6.63293H209.409V1.05993H189.129L189.125 31.2079ZM215.298 31.2079H225.164C234.711 31.3449 241.745 24.7669 241.608 16.0429C241.745 7.13593 234.708 0.968934 225.164 1.06093H215.298V31.2079ZM221.464 25.6349V6.63494H225.118C231.285 6.63494 235.259 10.1979 235.259 16.0449C235.259 21.8449 231.194 25.6369 225.118 25.6369L221.464 25.6349Z" fill="white"/>
</svg>
